<svg width="118" height="31" viewBox="0 0 118 31" fill="none" xmlns="http://www.w3.org/2000/svg">
<path d="M22.5273 30H17.1367L8.25 17.0312L5.4375 19.3164V30H0.75V1.44531H5.4375V15.0977C6.01042 14.3945 6.58984 13.6914 7.17578 12.9883C7.76172 12.2852 8.34766 11.582 8.93359 10.8789L16.9805 1.44531H22.2734L11.6094 13.9453L22.5273 30Z" fill="#414042"/>
<path d="M22.2969 30V1.44531H26.9844V30H22.2969Z" fill="#414042"/>
<path d="M30.5234 1.44531H39.0195C42.7044 1.44531 45.4844 1.97917 47.3594 3.04688C49.2344 4.11458 50.1719 5.95703 50.1719 8.57422C50.1719 9.66797 49.9766 10.6576 49.5859 11.543C49.2083 12.4154 48.6549 13.138 47.9258 13.7109C47.1966 14.2708 46.2982 14.6484 45.2305 14.8438V15.0391C46.3372 15.2344 47.3203 15.5794 48.1797 16.0742C49.0521 16.569 49.7357 17.2786 50.2305 18.2031C50.7383 19.1276 50.9922 20.3255 50.9922 21.7969C50.9922 23.5417 50.5755 25.026 49.7422 26.25C48.9219 27.474 47.7435 28.4049 46.207 29.043C44.6836 29.681 42.8737 30 40.7773 30H30.5234V1.44531ZM35.2109 13.2227H39.7031C41.8255 13.2227 43.2969 12.8776 44.1172 12.1875C44.9375 11.4974 45.3477 10.4883 45.3477 9.16016C45.3477 7.80599 44.8594 6.82943 43.8828 6.23047C42.9193 5.63151 41.3828 5.33203 39.2734 5.33203H35.2109V13.2227ZM35.2109 17.0117V26.0742H40.1523C42.3398 26.0742 43.8763 25.651 44.7617 24.8047C45.6471 23.9583 46.0898 22.8125 46.0898 21.3672C46.0898 20.4818 45.888 19.7135 45.4844 19.0625C45.0938 18.4115 44.4492 17.9102 43.5508 17.5586C42.6523 17.194 41.4414 17.0117 39.918 17.0117H35.2109Z" fill="#414042"/>
<path d="M96.8594 15.6836C96.8594 17.8841 96.5794 19.8893 96.0195 21.6992C95.4727 23.4961 94.6458 25.0456 93.5391 26.3477C92.4323 27.6367 91.0456 28.6328 89.3789 29.3359C87.7122 30.0391 85.7591 30.3906 83.5195 30.3906C81.2409 30.3906 79.2617 30.0391 77.582 29.3359C75.9154 28.6328 74.5286 27.6302 73.4219 26.3281C72.3281 25.026 71.5078 23.4701 70.9609 21.6602C70.4141 19.8503 70.1406 17.8451 70.1406 15.6445C70.1406 12.7018 70.6224 10.1367 71.5859 7.94922C72.5625 5.7487 74.0404 4.04297 76.0195 2.83203C78.0117 1.60807 80.5247 0.996094 83.5586 0.996094C86.5273 0.996094 88.9948 1.60156 90.9609 2.8125C92.9271 4.02344 94.3984 5.72917 95.375 7.92969C96.3646 10.1172 96.8594 12.7018 96.8594 15.6836ZM75.0625 15.6836C75.0625 17.8841 75.362 19.7917 75.9609 21.4062C76.5599 23.0078 77.4779 24.2448 78.7148 25.1172C79.9648 25.9766 81.5664 26.4062 83.5195 26.4062C85.4857 26.4062 87.0872 25.9766 88.3242 25.1172C89.5612 24.2448 90.4727 23.0078 91.0586 21.4062C91.6445 19.7917 91.9375 17.8841 91.9375 15.6836C91.9375 12.3372 91.2669 9.72005 89.9258 7.83203C88.5977 5.93099 86.4753 4.98047 83.5586 4.98047C81.6055 4.98047 79.9974 5.41016 78.7344 6.26953C77.4844 7.12891 76.5599 8.35938 75.9609 9.96094C75.362 11.5495 75.0625 13.457 75.0625 15.6836Z" fill="#FFC11E"/>
<path d="M107.293 1.44531C110.978 1.44531 113.667 2.20052 115.359 3.71094C117.052 5.22135 117.898 7.33724 117.898 10.0586C117.898 11.2956 117.703 12.474 117.312 13.5938C116.935 14.7005 116.31 15.6836 115.438 16.543C114.565 17.3893 113.413 18.0599 111.98 18.5547C110.561 19.0495 108.81 19.2969 106.727 19.2969H103.68V30H98.9922V1.44531H107.293ZM106.98 5.33203H103.68V15.3906H106.238C107.71 15.3906 108.96 15.2214 109.988 14.8828C111.017 14.5312 111.798 13.9779 112.332 13.2227C112.866 12.4674 113.133 11.4714 113.133 10.2344C113.133 8.58073 112.632 7.35026 111.629 6.54297C110.639 5.73568 109.09 5.33203 106.98 5.33203Z" fill="#7AB1FF"/>
<path d="M62.793 30H58.0859V5.42969H49.7266V1.44531H71.1328V5.42969H62.793V30Z" fill="#35D073"/>
</svg>
