<svg xmlns="http://www.w3.org/2000/svg">
    <symbol id="planet" viewBox="0 0 20 20">
        <path d="M10 0C8.02219 0 6.08879 0.58649 4.4443 1.6853C2.79981 2.78412 1.51809 4.3459 0.761209 6.17317C0.00433286 8.00043 -0.193701 10.0111 0.192152 11.9509C0.578004 13.8907 1.53041 15.6725 2.92894 17.0711C4.32746 18.4696 6.10929 19.422 8.0491 19.8079C9.98891 20.1937 11.9996 19.9957 13.8268 19.2388C15.6541 18.4819 17.2159 17.2002 18.3147 15.5557C19.4135 13.9112 20 11.9778 20 10C19.9971 7.34872 18.9426 4.80684 17.0679 2.9321C15.1932 1.05736 12.6513 0.00286757 10 0V0ZM17.2058 5.83333H14.5217C13.9208 4.44082 13.1297 3.1384 12.1708 1.96333C14.2929 2.54077 16.1019 3.93122 17.2058 5.83333ZM13.75 10C13.7432 10.8484 13.6095 11.6911 13.3533 12.5H6.64667C6.39055 11.6911 6.25685 10.8484 6.25 10C6.25685 9.15155 6.39055 8.3089 6.64667 7.5H13.3533C13.6095 8.3089 13.7432 9.15155 13.75 10ZM7.315 14.1667H12.685C11.9777 15.5631 11.0735 16.8507 10 17.99C8.92615 16.851 8.02187 15.5634 7.315 14.1667ZM7.315 5.83333C8.02231 4.43689 8.92654 3.1493 10 2.01C11.0739 3.14898 11.9781 4.43663 12.685 5.83333H7.315ZM7.83334 1.96333C6.87305 3.13815 6.08049 4.44058 5.47834 5.83333H2.79417C3.89905 3.93036 5.70972 2.5398 7.83334 1.96333ZM2.05084 7.5H4.91667C4.70064 8.31595 4.58864 9.15595 4.58334 10C4.58864 10.8441 4.70064 11.684 4.91667 12.5H2.05084C1.53862 10.8727 1.53862 9.12731 2.05084 7.5ZM2.79417 14.1667H5.47834C6.08049 15.5594 6.87305 16.8618 7.83334 18.0367C5.70972 17.4602 3.89905 16.0696 2.79417 14.1667ZM12.1708 18.0367C13.1297 16.8616 13.9208 15.5592 14.5217 14.1667H17.2058C16.1019 16.0688 14.2929 17.4592 12.1708 18.0367ZM17.9492 12.5H15.0833C15.2994 11.684 15.4114 10.8441 15.4167 10C15.4114 9.15595 15.2994 8.31595 15.0833 7.5H17.9475C18.4597 9.12731 18.4597 10.8727 17.9475 12.5H17.9492Z" fill="#414042"/>
    </symbol>

    <symbol id="heart" viewBox="0 0 30 30">
        <g clip-path="url(#clip0_200_618)">
            <path d="M21.8752 1.14624C20.4676 1.16813 19.0908 1.56106 17.8836 2.28533C16.6765 3.0096 15.6819 4.03958 15.0002 5.27124C14.3185 4.03958 13.3239 3.0096 12.1167 2.28533C10.9096 1.56106 9.53275 1.16813 8.12519 1.14624C5.88137 1.24373 3.76732 2.22531 2.24492 3.87653C0.722516 5.52775 -0.0844962 7.7144 0.000192004 9.95874C0.000192004 18.4275 13.6952 28.2087 14.2777 28.6237L15.0002 29.135L15.7227 28.6237C16.3052 28.2112 30.0002 18.4275 30.0002 9.95874C30.0849 7.7144 29.2779 5.52775 27.7555 3.87653C26.2331 2.22531 24.119 1.24373 21.8752 1.14624Z"/>
        </g>
        <defs>
            <clipPath id="clip0_200_618">
                <rect width="30" height="30" fill="white"/>
            </clipPath>
        </defs>
    </symbol>

    <symbol id="letter" viewBox="0 0 30 30">
        <g clip-path="url(#clip0_200_620)">
            <path d="M29.9425 6.92749L19.42 17.45C18.2467 18.6203 16.6572 19.2775 15 19.2775C13.3428 19.2775 11.7533 18.6203 10.58 17.45L0.0575 6.92749C0.04 7.12499 0 7.30374 0 7.49999V22.5C0.00198482 24.157 0.661102 25.7455 1.83277 26.9172C3.00445 28.0889 4.59301 28.748 6.25 28.75H23.75C25.407 28.748 26.9956 28.0889 28.1672 26.9172C29.3389 25.7455 29.998 24.157 30 22.5V7.49999C30 7.30374 29.96 7.12499 29.9425 6.92749Z"/>
            <path d="M17.6527 15.6825L29.0702 4.26375C28.5171 3.34665 27.737 2.58755 26.8051 2.05966C25.8733 1.53178 24.8212 1.25293 23.7502 1.25H6.25018C5.1792 1.25293 4.12705 1.53178 3.19521 2.05966C2.26337 2.58755 1.48327 3.34665 0.930176 4.26375L12.3477 15.6825C13.0521 16.3841 14.0059 16.7781 15.0002 16.7781C15.9944 16.7781 16.9482 16.3841 17.6527 15.6825Z"/>
        </g>
        <defs>
            <clipPath id="clip0_200_620">
                <rect width="30" height="30" fill="white"/>
            </clipPath>
        </defs>
    </symbol>

    <symbol id="user" viewBox="0 0 40 37">
        <path fill-rule="evenodd" clip-rule="evenodd" d="M0 20C0 8.95431 8.95431 0 20 0C31.0457 0 40 8.95431 40 20C40 26.6584 36.7462 32.5569 31.742 36.1921C30.5971 30.7553 25.776 26.6731 20 26.6667C14.224 26.6731 9.40296 30.7553 8.25798 36.192C3.25375 32.5568 0 26.6584 0 20ZM20 24C24.4183 24 28 20.4183 28 16C28 11.5817 24.4183 8 20 8C15.5817 8 12 11.5817 12 16C12 20.4183 15.5817 24 20 24Z"/>
    </symbol>

    <symbol id="pointer" viewBox="0 0 20 20">
        <g clip-path="url(#clip0_200_588)">
            <path d="M10.0001 0.0349998C7.79507 0.0374258 5.68101 0.914396 4.12173 2.47352C2.56245 4.03265 1.68526 6.14662 1.68262 8.35167C1.68262 10.4933 3.34095 13.845 6.61178 18.3133C7.00117 18.8468 7.511 19.2807 8.09979 19.5799C8.68857 19.8791 9.33968 20.035 10.0001 20.035C10.6606 20.035 11.3117 19.8791 11.9004 19.5799C12.4892 19.2807 12.9991 18.8468 13.3885 18.3133C16.6593 13.845 18.3176 10.4933 18.3176 8.35167C18.315 6.14662 17.4378 4.03265 15.8785 2.47352C14.3192 0.914396 12.2052 0.0374258 10.0001 0.0349998ZM10.0001 11.6667C9.34085 11.6667 8.69638 11.4712 8.14822 11.1049C7.60005 10.7386 7.17281 10.218 6.92052 9.60895C6.66823 8.99986 6.60222 8.32964 6.73083 7.68303C6.85945 7.03643 7.17692 6.44249 7.64309 5.97631C8.10927 5.51014 8.70321 5.19267 9.34982 5.06405C9.99642 4.93543 10.6666 5.00144 11.2757 5.25374C11.8848 5.50603 12.4054 5.93327 12.7717 6.48143C13.138 7.0296 13.3335 7.67406 13.3335 8.33333C13.3335 9.21739 12.9823 10.0652 12.3571 10.6904C11.732 11.3155 10.8842 11.6667 10.0001 11.6667Z" fill="#414042" fill-opacity="0.4"/>
        </g>
        <defs>
            <clipPath id="clip0_200_588">
                <rect width="20" height="20" fill="white"/>
            </clipPath>
        </defs>
    </symbol>

    <symbol id="tolike" viewBox="0 0 42 42">
        <g clip-path="url(#clip0_125_275)">
            <path d="M30.6249 3.35475C28.6543 3.3854 26.7267 3.93549 25.0368 4.94948C23.3468 5.96346 21.9543 7.40542 20.9999 9.12975C20.0455 7.40542 18.6531 5.96346 16.9631 4.94948C15.2731 3.93549 13.3455 3.3854 11.3749 3.35475C8.23357 3.49124 5.27391 4.86545 3.14255 7.17716C1.01118 9.48887 -0.118636 12.5502 -7.29915e-05 15.6923C-7.29915e-05 23.6495 8.37543 32.34 15.3999 38.2323C16.9683 39.5502 18.9513 40.2728 20.9999 40.2728C23.0486 40.2728 25.0315 39.5502 26.5999 38.2323C33.6244 32.34 41.9999 23.6495 41.9999 15.6923C42.1185 12.5502 40.9887 9.48887 38.8573 7.17716C36.7259 4.86545 33.7663 3.49124 30.6249 3.35475ZM24.3512 35.5548C23.4131 36.3447 22.2262 36.7778 20.9999 36.7778C19.7736 36.7778 18.5867 36.3447 17.6487 35.5548C8.65718 28.0105 3.49993 20.7725 3.49993 15.6923C3.3803 13.478 4.14107 11.3063 5.61631 9.65073C7.09156 7.99517 9.16159 6.99012 11.3749 6.85475C13.5883 6.99012 15.6583 7.99517 17.1335 9.65073C18.6088 11.3063 19.3696 13.478 19.2499 15.6923C19.2499 16.1564 19.4343 16.6015 19.7625 16.9297C20.0907 17.2579 20.5358 17.4423 20.9999 17.4423C21.4641 17.4423 21.9092 17.2579 22.2374 16.9297C22.5655 16.6015 22.7499 16.1564 22.7499 15.6923C22.6303 13.478 23.3911 11.3063 24.8663 9.65073C26.3416 7.99517 28.4116 6.99012 30.6249 6.85475C32.8383 6.99012 34.9083 7.99517 36.3835 9.65073C37.8588 11.3063 38.6196 13.478 38.4999 15.6923C38.4999 20.7725 33.3427 28.0105 24.3512 35.5478V35.5548Z" fill="#414042"/>
        </g>
        <defs>
            <clipPath id="clip0_125_275">
                <rect width="42" height="42" fill="white"/>
            </clipPath>
        </defs>
    </symbol>

    <symbol id="liked" viewBox="0 0 42 42">
        <g clip-path="url(#clip0_125_275)">
            <path d="M30.6249 3.35475C28.6543 3.3854 26.7267 3.93549 25.0368 4.94948C23.3468 5.96346 21.9543 7.40542 20.9999 9.12975C20.0455 7.40542 18.6531 5.96346 16.9631 4.94948C15.2731 3.93549 13.3455 3.3854 11.3749 3.35475C8.23357 3.49124 5.27391 4.86545 3.14255 7.17716C1.01118 9.48887 -0.118636 12.5502 -7.29915e-05 15.6923C-7.29915e-05 23.6495 8.37543 32.34 15.3999 38.2323C16.9683 39.5502 18.9513 40.2728 20.9999 40.2728C23.0486 40.2728 25.0315 39.5502 26.5999 38.2323C33.6244 32.34 41.9999 23.6495 41.9999 15.6923C42.1185 12.5502 40.9887 9.48887 38.8573 7.17716C36.7259 4.86545 33.7663 3.49124 30.6249 3.35475ZM24.3512 35.5548C23.4131 36.3447 22.2262 36.7778 20.9999 36.7778C19.7736 36.7778 18.5867 36.3447 17.6487 35.5548C8.65718 28.0105 3.49993 20.7725 3.49993 15.6923C3.3803 13.478 4.14107 11.3063 5.61631 9.65073C7.09156 7.99517 9.16159 6.99012 11.3749 6.85475C13.5883 6.99012 15.6583 7.99517 17.1335 9.65073C18.6088 11.3063 19.3696 13.478 19.2499 15.6923C19.2499 16.1564 19.4343 16.6015 19.7625 16.9297C20.0907 17.2579 20.5358 17.4423 20.9999 17.4423C21.4641 17.4423 21.9092 17.2579 22.2374 16.9297C22.5655 16.6015 22.7499 16.1564 22.7499 15.6923C22.6303 13.478 23.3911 11.3063 24.8663 9.65073C26.3416 7.99517 28.4116 6.99012 30.6249 6.85475C32.8383 6.99012 34.9083 7.99517 36.3835 9.65073C37.8588 11.3063 38.6196 13.478 38.4999 15.6923C38.4999 20.7725 33.3427 28.0105 24.3512 35.5478V35.5548Z" fill="#414042"/>
        </g>
        <defs>
            <clipPath id="clip0_125_275">
                <rect width="42" height="42" fill="white"/>
            </clipPath>
        </defs>
    </symbol>

    <symbol id="quest" viewBox="0 0 20 20">
        <g clip-path="url(#clip0_200_627)">
            <path d="M10 0C8.02219 0 6.08879 0.58649 4.4443 1.6853C2.79981 2.78412 1.51809 4.34591 0.761209 6.17317C0.00433286 8.00043 -0.193701 10.0111 0.192152 11.9509C0.578004 13.8907 1.53041 15.6725 2.92894 17.0711C4.32746 18.4696 6.10929 19.422 8.0491 19.8079C9.98891 20.1937 11.9996 19.9957 13.8268 19.2388C15.6541 18.4819 17.2159 17.2002 18.3147 15.5557C19.4135 13.9112 20 11.9778 20 10C19.9971 7.34872 18.9426 4.80684 17.0679 2.9321C15.1932 1.05736 12.6513 0.00286757 10 0V0ZM10 18.3333C8.35183 18.3333 6.74066 17.8446 5.37025 16.9289C3.99984 16.0132 2.93174 14.7117 2.30101 13.189C1.67028 11.6663 1.50525 9.99076 1.82679 8.37425C2.14834 6.75774 2.94201 5.27288 4.10745 4.10744C5.27289 2.94201 6.75774 2.14833 8.37425 1.82679C9.99076 1.50525 11.6663 1.67027 13.189 2.301C14.7118 2.93173 16.0132 3.99984 16.9289 5.37025C17.8446 6.74066 18.3333 8.35182 18.3333 10C18.3309 12.2094 17.4522 14.3276 15.8899 15.8899C14.3276 17.4522 12.2094 18.3309 10 18.3333Z" fill="#414042"/>
            <path d="M10.5973 4.21918C10.1168 4.13162 9.62285 4.15075 9.1505 4.27521C8.67815 4.39968 8.23893 4.62643 7.86392 4.93943C7.4889 5.25243 7.18726 5.64403 6.98035 6.08651C6.77343 6.52899 6.66629 7.01154 6.6665 7.50001C6.6665 7.72103 6.7543 7.93299 6.91058 8.08927C7.06686 8.24555 7.27882 8.33335 7.49984 8.33335C7.72085 8.33335 7.93281 8.24555 8.08909 8.08927C8.24537 7.93299 8.33317 7.72103 8.33317 7.50001C8.33296 7.25483 8.38685 7.01261 8.491 6.79064C8.59514 6.56868 8.74698 6.37242 8.93569 6.21587C9.12439 6.05932 9.34531 5.94633 9.58269 5.88497C9.82007 5.8236 10.0681 5.81536 10.309 5.86085C10.6382 5.92475 10.9409 6.08533 11.1784 6.32209C11.4159 6.55884 11.5774 6.86102 11.6423 7.19001C11.7079 7.53535 11.6626 7.89258 11.513 8.21063C11.3633 8.52868 11.1169 8.79127 10.809 8.96085C10.2991 9.25623 9.87783 9.68294 9.58894 10.1965C9.30006 10.7101 9.15418 11.2917 9.1665 11.8808V12.5C9.1665 12.721 9.2543 12.933 9.41058 13.0893C9.56686 13.2455 9.77882 13.3333 9.99984 13.3333C10.2209 13.3333 10.4328 13.2455 10.5891 13.0893C10.7454 12.933 10.8332 12.721 10.8332 12.5V11.8808C10.8227 11.5909 10.8888 11.3032 11.0249 11.0469C11.1609 10.7906 11.3621 10.5747 11.6082 10.4208C12.2119 10.0892 12.6981 9.57873 12.9999 8.95952C13.3017 8.34031 13.4042 7.64281 13.2934 6.96295C13.1826 6.28309 12.8639 5.65426 12.3811 5.16293C11.8983 4.67159 11.2752 4.3419 10.5973 4.21918Z" fill="#414042"/>
            <path d="M10.8332 15C10.8332 14.5398 10.4601 14.1667 9.99984 14.1667C9.5396 14.1667 9.1665 14.5398 9.1665 15C9.1665 15.4602 9.5396 15.8333 9.99984 15.8333C10.4601 15.8333 10.8332 15.4602 10.8332 15Z" fill="#414042"/>
        </g>
        <defs>
            <clipPath id="clip0_200_627">
                <rect width="20" height="20" fill="white"/>
            </clipPath>
        </defs>
    </symbol>

    <symbol id="filter" viewBox="0 0 15 15">
        <path d="M0.625 2.96861H2.335C2.46915 3.46219 2.76198 3.89792 3.16833 4.20856C3.57467 4.51921 4.07195 4.68752 4.58344 4.68752C5.09492 4.68752 5.5922 4.51921 5.99855 4.20856C6.40489 3.89792 6.69773 3.46219 6.83187 2.96861H14.375C14.5408 2.96861 14.6997 2.90276 14.8169 2.78555C14.9342 2.66834 15 2.50937 15 2.34361C15 2.17785 14.9342 2.01888 14.8169 1.90167C14.6997 1.78445 14.5408 1.71861 14.375 1.71861H6.83187C6.69773 1.22502 6.40489 0.789298 5.99855 0.47865C5.5922 0.168002 5.09492 -0.000305176 4.58344 -0.000305176C4.07195 -0.000305176 3.57467 0.168002 3.16833 0.47865C2.76198 0.789298 2.46915 1.22502 2.335 1.71861H0.625C0.45924 1.71861 0.300269 1.78445 0.183058 1.90167C0.065848 2.01888 0 2.17785 0 2.34361C0 2.50937 0.065848 2.66834 0.183058 2.78555C0.300269 2.90276 0.45924 2.96861 0.625 2.96861ZM4.58313 1.24986C4.79945 1.24986 5.01091 1.314 5.19078 1.43419C5.37065 1.55437 5.51083 1.72519 5.59362 1.92505C5.6764 2.1249 5.69806 2.34482 5.65586 2.55699C5.61366 2.76915 5.50949 2.96404 5.35652 3.11701C5.20356 3.26997 5.00867 3.37414 4.7965 3.41634C4.58434 3.45854 4.36442 3.43688 4.16457 3.3541C3.96471 3.27132 3.79389 3.13113 3.67371 2.95126C3.55352 2.7714 3.48938 2.55993 3.48938 2.34361C3.48971 2.05363 3.60505 1.77562 3.81009 1.57057C4.01514 1.36553 4.29315 1.25019 4.58313 1.24986Z" fill="#414042"/>
        <path d="M14.375 6.87501H12.665C12.5311 6.38131 12.2384 5.94543 11.832 5.63465C11.4257 5.32387 10.9284 5.15549 10.4169 5.15549C9.90534 5.15549 9.40802 5.32387 9.00171 5.63465C8.59539 5.94543 8.30268 6.38131 8.16875 6.87501H0.625C0.45924 6.87501 0.300269 6.94086 0.183058 7.05807C0.065848 7.17528 0 7.33425 0 7.50001C0 7.66577 0.065848 7.82474 0.183058 7.94195C0.300269 8.05916 0.45924 8.12501 0.625 8.12501H8.16875C8.30268 8.61871 8.59539 9.05459 9.00171 9.36537C9.40802 9.67614 9.90534 9.84453 10.4169 9.84453C10.9284 9.84453 11.4257 9.67614 11.832 9.36537C12.2384 9.05459 12.5311 8.61871 12.665 8.12501H14.375C14.5408 8.12501 14.6997 8.05916 14.8169 7.94195C14.9342 7.82474 15 7.66577 15 7.50001C15 7.33425 14.9342 7.17528 14.8169 7.05807C14.6997 6.94086 14.5408 6.87501 14.375 6.87501ZM10.4169 8.59376C10.2006 8.59376 9.98909 8.52961 9.80922 8.40943C9.62935 8.28925 9.48917 8.11842 9.40638 7.91857C9.3236 7.71871 9.30194 7.4988 9.34414 7.28663C9.38634 7.07446 9.49051 6.87957 9.64348 6.72661C9.79644 6.57365 9.99133 6.46948 10.2035 6.42727C10.4157 6.38507 10.6356 6.40673 10.8354 6.48952C11.0353 6.5723 11.2061 6.71249 11.3263 6.89235C11.4465 7.07222 11.5106 7.28368 11.5106 7.50001C11.5103 7.78999 11.395 8.068 11.1899 8.27304C10.9849 8.47809 10.7069 8.59343 10.4169 8.59376Z" fill="#414042"/>
        <path d="M14.375 12.0313H6.83187C6.69773 11.5377 6.40489 11.102 5.99855 10.7913C5.5922 10.4807 5.09492 10.3123 4.58344 10.3123C4.07195 10.3123 3.57467 10.4807 3.16833 10.7913C2.76198 11.102 2.46915 11.5377 2.335 12.0313H0.625C0.45924 12.0313 0.300269 12.0971 0.183058 12.2143C0.065848 12.3315 0 12.4905 0 12.6563C0 12.822 0.065848 12.981 0.183058 13.0982C0.300269 13.2154 0.45924 13.2813 0.625 13.2813H2.335C2.46915 13.7748 2.76198 14.2106 3.16833 14.5212C3.57467 14.8319 4.07195 15.0002 4.58344 15.0002C5.09492 15.0002 5.5922 14.8319 5.99855 14.5212C6.40489 14.2106 6.69773 13.7748 6.83187 13.2813H14.375C14.5408 13.2813 14.6997 13.2154 14.8169 13.0982C14.9342 12.981 15 12.822 15 12.6563C15 12.4905 14.9342 12.3315 14.8169 12.2143C14.6997 12.0971 14.5408 12.0313 14.375 12.0313ZM4.58313 13.75C4.3668 13.75 4.15534 13.6859 3.97547 13.5657C3.7956 13.4455 3.65542 13.2747 3.57263 13.0748C3.48985 12.875 3.46819 12.655 3.51039 12.4429C3.55259 12.2307 3.65676 12.0358 3.80973 11.8829C3.96269 11.7299 4.15758 11.6257 4.36974 11.5835C4.58191 11.5413 4.80183 11.563 5.00169 11.6458C5.20154 11.7285 5.37236 11.8687 5.49254 12.0486C5.61273 12.2285 5.67688 12.4399 5.67688 12.6563C5.67638 12.9462 5.56099 13.2241 5.35598 13.4291C5.15097 13.6341 4.87305 13.7495 4.58313 13.75Z" fill="#414042"/>
    </symbol>

    <symbol id="check" viewBox="0 0 20 20">
        <path d="M6.45766 17.2189C5.88994 17.2191 5.34547 16.9934 4.94438 16.5917L0.369217 12.0182C-0.123072 11.5258 -0.123072 10.7275 0.369217 10.2351C0.861665 9.74277 1.65992 9.74277 2.15237 10.2351L6.45766 14.5403L17.8476 3.15038C18.3401 2.65809 19.1383 2.65809 19.6308 3.15038C20.1231 3.64282 20.1231 4.44108 19.6308 4.93353L7.97094 16.5917C7.56984 16.9934 7.02538 17.2191 6.45766 17.2189Z" fill="#65A4FE"/>
    </symbol>

    <symbol id="loop" viewBox="0 0 21 21">
        <path d="M20.7558 19.5775L15.7816 14.6033C17.1371 12.9455 17.8036 10.8301 17.6431 8.69464C17.4827 6.55919 16.5076 4.56711 14.9196 3.13044C13.3316 1.69376 11.2521 0.922412 9.11131 0.975938C6.97052 1.02946 4.93219 1.90377 3.41795 3.41801C1.90371 4.93225 1.0294 6.97058 0.975877 9.11137C0.922351 11.2522 1.6937 13.3316 3.13037 14.9197C4.56705 16.5077 6.55913 17.4828 8.69458 17.6432C10.83 17.8037 12.9454 17.1372 14.6033 15.7817L19.5774 20.7558C19.7346 20.9076 19.9451 20.9916 20.1636 20.9897C20.3821 20.9878 20.5911 20.9002 20.7456 20.7457C20.9001 20.5912 20.9878 20.3822 20.9897 20.1637C20.9916 19.9452 20.9076 19.7347 20.7558 19.5775ZM9.33327 16C8.01473 16 6.7258 15.609 5.62947 14.8765C4.53314 14.1439 3.67866 13.1027 3.17408 11.8846C2.66949 10.6664 2.53747 9.32594 2.7947 8.03273C3.05194 6.73953 3.68688 5.55164 4.61923 4.61929C5.55158 3.68694 6.73947 3.052 8.03267 2.79477C9.32588 2.53753 10.6663 2.66955 11.8845 3.17414C13.1027 3.67872 14.1439 4.53321 14.8764 5.62953C15.6089 6.72586 15.9999 8.01479 15.9999 9.33333C15.998 11.1008 15.2949 12.7954 14.0451 14.0452C12.7953 15.295 11.1008 15.998 9.33327 16Z"/>
    </symbol>

    <symbol id="plus" viewBox="0 0 15 15">
        <path d="M14.0625 6.5625H8.4375V0.9375C8.4375 0.419736 8.01776 0 7.5 0C6.98224 0 6.5625 0.419736 6.5625 0.9375V6.5625H0.9375C0.419736 6.5625 0 6.98224 0 7.5C0 8.01776 0.419736 8.4375 0.9375 8.4375H6.5625V14.0625C6.5625 14.5803 6.98224 15 7.5 15C8.01776 15 8.4375 14.5803 8.4375 14.0625V8.4375H14.0625C14.5803 8.4375 15 8.01776 15 7.5C15 6.98224 14.5803 6.5625 14.0625 6.5625Z" fill="white"/>
    </symbol>


    <symbol id="all_categories" viewBox="0 0 40 40">
        <g clip-path="url(#clip0_29_460)">
            <path d="M3.33336 29.1667H7.5C9.34094 29.1667 10.8334 30.6592 10.8334 32.5001V36.6667C10.8334 38.5078 9.34094 40.0001 7.5 40.0001H3.33336C1.49242 40.0001 0 38.5078 0 36.6667V32.5001C0 30.6592 1.49242 29.1667 3.33336 29.1667Z" fill="#414042"/>
            <path d="M32.5001 29.1667H36.6667C38.5078 29.1667 40.0001 30.6592 40.0001 32.5001V36.6667C40.0001 38.5078 38.5078 40.0001 36.6667 40.0001H32.5001C30.6592 40.0001 29.1667 38.5078 29.1667 36.6667V32.5001C29.1667 30.6592 30.6592 29.1667 32.5001 29.1667Z" fill="#414042"/>
            <path d="M3.33336 14.5833H7.5C9.34094 14.5833 10.8334 16.0757 10.8334 17.9166V22.0833C10.8334 23.9242 9.34094 25.4166 7.5 25.4166H3.33336C1.49242 25.4165 0 23.9242 0 22.0833V17.9166C0 16.0756 1.49242 14.5833 3.33336 14.5833Z" fill="#414042"/>
            <path d="M32.5001 14.5833H36.6667C38.5077 14.5833 40.0001 16.0757 40.0001 17.9166V22.0833C40.0001 23.9242 38.5078 25.4166 36.6667 25.4166H32.5001C30.6592 25.4166 29.1667 23.9242 29.1667 22.0833V17.9166C29.1667 16.0756 30.6592 14.5833 32.5001 14.5833Z" fill="#414042"/>
            <path d="M3.33336 0H7.5C9.34094 0 10.8334 1.49242 10.8334 3.33336V7.5C10.8334 9.34094 9.34094 10.8334 7.5 10.8334H3.33336C1.49242 10.8334 0 9.34094 0 7.5V3.33336C0 1.49242 1.49242 0 3.33336 0Z" fill="#414042"/>
            <path d="M17.9166 29.1667H22.0833C23.9242 29.1667 25.4166 30.6592 25.4166 32.5001V36.6667C25.4166 38.5077 23.9242 40.0001 22.0833 40.0001H17.9166C16.0757 40.0001 14.5833 38.5078 14.5833 36.6667V32.5001C14.5833 30.6592 16.0757 29.1667 17.9166 29.1667Z" fill="#414042"/>
            <path d="M17.9166 14.5833H22.0833C23.9242 14.5833 25.4166 16.0757 25.4166 17.9166V22.0833C25.4166 23.9242 23.9242 25.4166 22.0833 25.4166H17.9166C16.0757 25.4166 14.5833 23.9242 14.5833 22.0833V17.9166C14.5833 16.0756 16.0757 14.5833 17.9166 14.5833Z" fill="#414042"/>
            <path d="M17.9166 0H22.0833C23.9242 0 25.4166 1.49242 25.4166 3.33336V7.5C25.4166 9.34094 23.9242 10.8334 22.0833 10.8334H17.9166C16.0757 10.8334 14.5833 9.34094 14.5833 7.5V3.33336C14.5833 1.49242 16.0757 0 17.9166 0Z" fill="#414042"/>
            <path d="M32.5001 0H36.6667C38.5078 0 40.0001 1.49242 40.0001 3.33336V7.5C40.0001 9.34094 38.5078 10.8334 36.6667 10.8334H32.5001C30.6592 10.8334 29.1667 9.34094 29.1667 7.5V3.33336C29.1667 1.49242 30.6592 0 32.5001 0Z" fill="#414042"/>
        </g>
        <defs>
            <clipPath id="clip0_29_460">
                <rect width="40" height="40" fill="white"/>
            </clipPath>
        </defs>    
    </symbol>
</svg>

