<svg xmlns="http://www.w3.org/2000/svg">
    <symbol id="planet" viewBox="0 0 20 20">
        <path d="M10 0C8.02219 0 6.08879 0.58649 4.4443 1.6853C2.79981 2.78412 1.51809 4.3459 0.761209 6.17317C0.00433286 8.00043 -0.193701 10.0111 0.192152 11.9509C0.578004 13.8907 1.53041 15.6725 2.92894 17.0711C4.32746 18.4696 6.10929 19.422 8.0491 19.8079C9.98891 20.1937 11.9996 19.9957 13.8268 19.2388C15.6541 18.4819 17.2159 17.2002 18.3147 15.5557C19.4135 13.9112 20 11.9778 20 10C19.9971 7.34872 18.9426 4.80684 17.0679 2.9321C15.1932 1.05736 12.6513 0.00286757 10 0V0ZM17.2058 5.83333H14.5217C13.9208 4.44082 13.1297 3.1384 12.1708 1.96333C14.2929 2.54077 16.1019 3.93122 17.2058 5.83333ZM13.75 10C13.7432 10.8484 13.6095 11.6911 13.3533 12.5H6.64667C6.39055 11.6911 6.25685 10.8484 6.25 10C6.25685 9.15155 6.39055 8.3089 6.64667 7.5H13.3533C13.6095 8.3089 13.7432 9.15155 13.75 10ZM7.315 14.1667H12.685C11.9777 15.5631 11.0735 16.8507 10 17.99C8.92615 16.851 8.02187 15.5634 7.315 14.1667ZM7.315 5.83333C8.02231 4.43689 8.92654 3.1493 10 2.01C11.0739 3.14898 11.9781 4.43663 12.685 5.83333H7.315ZM7.83334 1.96333C6.87305 3.13815 6.08049 4.44058 5.47834 5.83333H2.79417C3.89905 3.93036 5.70972 2.5398 7.83334 1.96333ZM2.05084 7.5H4.91667C4.70064 8.31595 4.58864 9.15595 4.58334 10C4.58864 10.8441 4.70064 11.684 4.91667 12.5H2.05084C1.53862 10.8727 1.53862 9.12731 2.05084 7.5ZM2.79417 14.1667H5.47834C6.08049 15.5594 6.87305 16.8618 7.83334 18.0367C5.70972 17.4602 3.89905 16.0696 2.79417 14.1667ZM12.1708 18.0367C13.1297 16.8616 13.9208 15.5592 14.5217 14.1667H17.2058C16.1019 16.0688 14.2929 17.4592 12.1708 18.0367ZM17.9492 12.5H15.0833C15.2994 11.684 15.4114 10.8441 15.4167 10C15.4114 9.15595 15.2994 8.31595 15.0833 7.5H17.9475C18.4597 9.12731 18.4597 10.8727 17.9475 12.5H17.9492Z" fill="#414042"/>
    </symbol>

    <symbol id="heart" viewBox="0 0 30 30">
        <g clip-path="url(#clip0_200_618)">
            <path d="M21.8752 1.14624C20.4676 1.16813 19.0908 1.56106 17.8836 2.28533C16.6765 3.0096 15.6819 4.03958 15.0002 5.27124C14.3185 4.03958 13.3239 3.0096 12.1167 2.28533C10.9096 1.56106 9.53275 1.16813 8.12519 1.14624C5.88137 1.24373 3.76732 2.22531 2.24492 3.87653C0.722516 5.52775 -0.0844962 7.7144 0.000192004 9.95874C0.000192004 18.4275 13.6952 28.2087 14.2777 28.6237L15.0002 29.135L15.7227 28.6237C16.3052 28.2112 30.0002 18.4275 30.0002 9.95874C30.0849 7.7144 29.2779 5.52775 27.7555 3.87653C26.2331 2.22531 24.119 1.24373 21.8752 1.14624Z" fill="#414042"/>
        </g>
        <defs>
            <clipPath id="clip0_200_618">
                <rect width="30" height="30" fill="green"/>
            </clipPath>
        </defs>
    </symbol>

    <symbol id="letter" viewBox="0 0 30 30">
        <g clip-path="url(#clip0_200_620)">
            <path d="M29.9425 6.92749L19.42 17.45C18.2467 18.6203 16.6572 19.2775 15 19.2775C13.3428 19.2775 11.7533 18.6203 10.58 17.45L0.0575 6.92749C0.04 7.12499 0 7.30374 0 7.49999V22.5C0.00198482 24.157 0.661102 25.7455 1.83277 26.9172C3.00445 28.0889 4.59301 28.748 6.25 28.75H23.75C25.407 28.748 26.9956 28.0889 28.1672 26.9172C29.3389 25.7455 29.998 24.157 30 22.5V7.49999C30 7.30374 29.96 7.12499 29.9425 6.92749Z" fill="#414042"/>
            <path d="M17.6527 15.6825L29.0702 4.26375C28.5171 3.34665 27.737 2.58755 26.8051 2.05966C25.8733 1.53178 24.8212 1.25293 23.7502 1.25H6.25018C5.1792 1.25293 4.12705 1.53178 3.19521 2.05966C2.26337 2.58755 1.48327 3.34665 0.930176 4.26375L12.3477 15.6825C13.0521 16.3841 14.0059 16.7781 15.0002 16.7781C15.9944 16.7781 16.9482 16.3841 17.6527 15.6825Z" fill="#414042"/>
        </g>
        <defs>
            <clipPath id="clip0_200_620">
                <rect width="30" height="30" fill="white"/>
            </clipPath>
        </defs>
    </symbol>

    <symbol id="user" viewBox="0 0 40 37">
        <path fill-rule="evenodd" clip-rule="evenodd" d="M0 20C0 8.95431 8.95431 0 20 0C31.0457 0 40 8.95431 40 20C40 26.6584 36.7462 32.5569 31.742 36.1921C30.5971 30.7553 25.776 26.6731 20 26.6667C14.224 26.6731 9.40296 30.7553 8.25798 36.192C3.25375 32.5568 0 26.6584 0 20ZM20 24C24.4183 24 28 20.4183 28 16C28 11.5817 24.4183 8 20 8C15.5817 8 12 11.5817 12 16C12 20.4183 15.5817 24 20 24Z" fill="#414042"/>
    </symbol>

    <symbol id="pointer" viewBox="0 0 20 20">
        <g clip-path="url(#clip0_200_588)">
            <path d="M10.0001 0.0349998C7.79507 0.0374258 5.68101 0.914396 4.12173 2.47352C2.56245 4.03265 1.68526 6.14662 1.68262 8.35167C1.68262 10.4933 3.34095 13.845 6.61178 18.3133C7.00117 18.8468 7.511 19.2807 8.09979 19.5799C8.68857 19.8791 9.33968 20.035 10.0001 20.035C10.6606 20.035 11.3117 19.8791 11.9004 19.5799C12.4892 19.2807 12.9991 18.8468 13.3885 18.3133C16.6593 13.845 18.3176 10.4933 18.3176 8.35167C18.315 6.14662 17.4378 4.03265 15.8785 2.47352C14.3192 0.914396 12.2052 0.0374258 10.0001 0.0349998ZM10.0001 11.6667C9.34085 11.6667 8.69638 11.4712 8.14822 11.1049C7.60005 10.7386 7.17281 10.218 6.92052 9.60895C6.66823 8.99986 6.60222 8.32964 6.73083 7.68303C6.85945 7.03643 7.17692 6.44249 7.64309 5.97631C8.10927 5.51014 8.70321 5.19267 9.34982 5.06405C9.99642 4.93543 10.6666 5.00144 11.2757 5.25374C11.8848 5.50603 12.4054 5.93327 12.7717 6.48143C13.138 7.0296 13.3335 7.67406 13.3335 8.33333C13.3335 9.21739 12.9823 10.0652 12.3571 10.6904C11.732 11.3155 10.8842 11.6667 10.0001 11.6667Z" fill="#414042" fill-opacity="0.4"/>
        </g>
        <defs>
            <clipPath id="clip0_200_588">
                <rect width="20" height="20" fill="white"/>
            </clipPath>
        </defs>
    </symbol>

    <symbol id="tolike" viewBox="0 0 42 42">
        <g clip-path="url(#clip0_125_275)">
            <path d="M30.6249 3.35475C28.6543 3.3854 26.7267 3.93549 25.0368 4.94948C23.3468 5.96346 21.9543 7.40542 20.9999 9.12975C20.0455 7.40542 18.6531 5.96346 16.9631 4.94948C15.2731 3.93549 13.3455 3.3854 11.3749 3.35475C8.23357 3.49124 5.27391 4.86545 3.14255 7.17716C1.01118 9.48887 -0.118636 12.5502 -7.29915e-05 15.6923C-7.29915e-05 23.6495 8.37543 32.34 15.3999 38.2323C16.9683 39.5502 18.9513 40.2728 20.9999 40.2728C23.0486 40.2728 25.0315 39.5502 26.5999 38.2323C33.6244 32.34 41.9999 23.6495 41.9999 15.6923C42.1185 12.5502 40.9887 9.48887 38.8573 7.17716C36.7259 4.86545 33.7663 3.49124 30.6249 3.35475ZM24.3512 35.5548C23.4131 36.3447 22.2262 36.7778 20.9999 36.7778C19.7736 36.7778 18.5867 36.3447 17.6487 35.5548C8.65718 28.0105 3.49993 20.7725 3.49993 15.6923C3.3803 13.478 4.14107 11.3063 5.61631 9.65073C7.09156 7.99517 9.16159 6.99012 11.3749 6.85475C13.5883 6.99012 15.6583 7.99517 17.1335 9.65073C18.6088 11.3063 19.3696 13.478 19.2499 15.6923C19.2499 16.1564 19.4343 16.6015 19.7625 16.9297C20.0907 17.2579 20.5358 17.4423 20.9999 17.4423C21.4641 17.4423 21.9092 17.2579 22.2374 16.9297C22.5655 16.6015 22.7499 16.1564 22.7499 15.6923C22.6303 13.478 23.3911 11.3063 24.8663 9.65073C26.3416 7.99517 28.4116 6.99012 30.6249 6.85475C32.8383 6.99012 34.9083 7.99517 36.3835 9.65073C37.8588 11.3063 38.6196 13.478 38.4999 15.6923C38.4999 20.7725 33.3427 28.0105 24.3512 35.5478V35.5548Z" fill="#414042"/>
        </g>
        <defs>
            <clipPath id="clip0_125_275">
                <rect width="42" height="42" fill="white"/>
            </clipPath>
        </defs>
    </symbol>

    <symbol id="liked" viewBox="0 0 42 42">
        <g clip-path="url(#clip0_125_275)">
            <path d="M30.6249 3.35475C28.6543 3.3854 26.7267 3.93549 25.0368 4.94948C23.3468 5.96346 21.9543 7.40542 20.9999 9.12975C20.0455 7.40542 18.6531 5.96346 16.9631 4.94948C15.2731 3.93549 13.3455 3.3854 11.3749 3.35475C8.23357 3.49124 5.27391 4.86545 3.14255 7.17716C1.01118 9.48887 -0.118636 12.5502 -7.29915e-05 15.6923C-7.29915e-05 23.6495 8.37543 32.34 15.3999 38.2323C16.9683 39.5502 18.9513 40.2728 20.9999 40.2728C23.0486 40.2728 25.0315 39.5502 26.5999 38.2323C33.6244 32.34 41.9999 23.6495 41.9999 15.6923C42.1185 12.5502 40.9887 9.48887 38.8573 7.17716C36.7259 4.86545 33.7663 3.49124 30.6249 3.35475ZM24.3512 35.5548C23.4131 36.3447 22.2262 36.7778 20.9999 36.7778C19.7736 36.7778 18.5867 36.3447 17.6487 35.5548C8.65718 28.0105 3.49993 20.7725 3.49993 15.6923C3.3803 13.478 4.14107 11.3063 5.61631 9.65073C7.09156 7.99517 9.16159 6.99012 11.3749 6.85475C13.5883 6.99012 15.6583 7.99517 17.1335 9.65073C18.6088 11.3063 19.3696 13.478 19.2499 15.6923C19.2499 16.1564 19.4343 16.6015 19.7625 16.9297C20.0907 17.2579 20.5358 17.4423 20.9999 17.4423C21.4641 17.4423 21.9092 17.2579 22.2374 16.9297C22.5655 16.6015 22.7499 16.1564 22.7499 15.6923C22.6303 13.478 23.3911 11.3063 24.8663 9.65073C26.3416 7.99517 28.4116 6.99012 30.6249 6.85475C32.8383 6.99012 34.9083 7.99517 36.3835 9.65073C37.8588 11.3063 38.6196 13.478 38.4999 15.6923C38.4999 20.7725 33.3427 28.0105 24.3512 35.5478V35.5548Z" fill="#414042"/>
        </g>
        <defs>
            <clipPath id="clip0_125_275">
                <rect width="42" height="42" fill="white"/>
            </clipPath>
        </defs>
    </symbol>

    <symbol id="quest" viewBox="0 0 20 20">
        <g clip-path="url(#clip0_200_627)">
            <path d="M10 0C8.02219 0 6.08879 0.58649 4.4443 1.6853C2.79981 2.78412 1.51809 4.34591 0.761209 6.17317C0.00433286 8.00043 -0.193701 10.0111 0.192152 11.9509C0.578004 13.8907 1.53041 15.6725 2.92894 17.0711C4.32746 18.4696 6.10929 19.422 8.0491 19.8079C9.98891 20.1937 11.9996 19.9957 13.8268 19.2388C15.6541 18.4819 17.2159 17.2002 18.3147 15.5557C19.4135 13.9112 20 11.9778 20 10C19.9971 7.34872 18.9426 4.80684 17.0679 2.9321C15.1932 1.05736 12.6513 0.00286757 10 0V0ZM10 18.3333C8.35183 18.3333 6.74066 17.8446 5.37025 16.9289C3.99984 16.0132 2.93174 14.7117 2.30101 13.189C1.67028 11.6663 1.50525 9.99076 1.82679 8.37425C2.14834 6.75774 2.94201 5.27288 4.10745 4.10744C5.27289 2.94201 6.75774 2.14833 8.37425 1.82679C9.99076 1.50525 11.6663 1.67027 13.189 2.301C14.7118 2.93173 16.0132 3.99984 16.9289 5.37025C17.8446 6.74066 18.3333 8.35182 18.3333 10C18.3309 12.2094 17.4522 14.3276 15.8899 15.8899C14.3276 17.4522 12.2094 18.3309 10 18.3333Z" fill="#414042"/>
            <path d="M10.5973 4.21918C10.1168 4.13162 9.62285 4.15075 9.1505 4.27521C8.67815 4.39968 8.23893 4.62643 7.86392 4.93943C7.4889 5.25243 7.18726 5.64403 6.98035 6.08651C6.77343 6.52899 6.66629 7.01154 6.6665 7.50001C6.6665 7.72103 6.7543 7.93299 6.91058 8.08927C7.06686 8.24555 7.27882 8.33335 7.49984 8.33335C7.72085 8.33335 7.93281 8.24555 8.08909 8.08927C8.24537 7.93299 8.33317 7.72103 8.33317 7.50001C8.33296 7.25483 8.38685 7.01261 8.491 6.79064C8.59514 6.56868 8.74698 6.37242 8.93569 6.21587C9.12439 6.05932 9.34531 5.94633 9.58269 5.88497C9.82007 5.8236 10.0681 5.81536 10.309 5.86085C10.6382 5.92475 10.9409 6.08533 11.1784 6.32209C11.4159 6.55884 11.5774 6.86102 11.6423 7.19001C11.7079 7.53535 11.6626 7.89258 11.513 8.21063C11.3633 8.52868 11.1169 8.79127 10.809 8.96085C10.2991 9.25623 9.87783 9.68294 9.58894 10.1965C9.30006 10.7101 9.15418 11.2917 9.1665 11.8808V12.5C9.1665 12.721 9.2543 12.933 9.41058 13.0893C9.56686 13.2455 9.77882 13.3333 9.99984 13.3333C10.2209 13.3333 10.4328 13.2455 10.5891 13.0893C10.7454 12.933 10.8332 12.721 10.8332 12.5V11.8808C10.8227 11.5909 10.8888 11.3032 11.0249 11.0469C11.1609 10.7906 11.3621 10.5747 11.6082 10.4208C12.2119 10.0892 12.6981 9.57873 12.9999 8.95952C13.3017 8.34031 13.4042 7.64281 13.2934 6.96295C13.1826 6.28309 12.8639 5.65426 12.3811 5.16293C11.8983 4.67159 11.2752 4.3419 10.5973 4.21918Z" fill="#414042"/>
            <path d="M10.8332 15C10.8332 14.5398 10.4601 14.1667 9.99984 14.1667C9.5396 14.1667 9.1665 14.5398 9.1665 15C9.1665 15.4602 9.5396 15.8333 9.99984 15.8333C10.4601 15.8333 10.8332 15.4602 10.8332 15Z" fill="#414042"/>
        </g>
        <defs>
            <clipPath id="clip0_200_627">
                <rect width="20" height="20" fill="white"/>
            </clipPath>
        </defs>
    </symbol>
</svg>

